<mxfile host="Electron" modified="2023-12-17T21:42:19.423Z" agent="Mozilla/5.0 (Windows NT 10.0; Win64; x64) AppleWebKit/537.36 (KHTML, like Gecko) draw.io/22.1.2 Chrome/114.0.5735.289 Electron/25.9.4 Safari/537.36" etag="TcedNQZuNlJ3TrcCSmlf" version="22.1.2" type="device">
  <diagram name="Page-1" id="Pp8uwwfb7jAw0f-DfUxC">
    <mxGraphModel dx="1036" dy="654" grid="1" gridSize="10" guides="1" tooltips="1" connect="1" arrows="1" fold="1" page="1" pageScale="1" pageWidth="850" pageHeight="1100" math="0" shadow="0">
      <root>
        <mxCell id="0" />
        <mxCell id="1" parent="0" />
        <mxCell id="-8yeryvxA4hyLNhjOA7v-3" value="" style="edgeStyle=orthogonalEdgeStyle;rounded=0;orthogonalLoop=1;jettySize=auto;html=1;" edge="1" parent="1" source="-8yeryvxA4hyLNhjOA7v-1" target="-8yeryvxA4hyLNhjOA7v-2">
          <mxGeometry relative="1" as="geometry" />
        </mxCell>
        <mxCell id="-8yeryvxA4hyLNhjOA7v-1" value="START" style="ellipse;whiteSpace=wrap;html=1;" vertex="1" parent="1">
          <mxGeometry x="365" y="40" width="120" height="80" as="geometry" />
        </mxCell>
        <mxCell id="-8yeryvxA4hyLNhjOA7v-11" value="" style="edgeStyle=orthogonalEdgeStyle;rounded=0;orthogonalLoop=1;jettySize=auto;html=1;" edge="1" parent="1" source="-8yeryvxA4hyLNhjOA7v-2" target="-8yeryvxA4hyLNhjOA7v-10">
          <mxGeometry relative="1" as="geometry" />
        </mxCell>
        <mxCell id="-8yeryvxA4hyLNhjOA7v-2" value="X, Y, Z&lt;br&gt;SUM = 0" style="shape=parallelogram;perimeter=parallelogramPerimeter;whiteSpace=wrap;html=1;fixedSize=1;" vertex="1" parent="1">
          <mxGeometry x="365" y="180" width="120" height="60" as="geometry" />
        </mxCell>
        <mxCell id="-8yeryvxA4hyLNhjOA7v-4" value="&#xa;&lt;span style=&quot;color: rgb(0, 0, 0); font-family: Georgia; font-size: 17px; font-style: normal; font-variant-ligatures: normal; font-variant-caps: normal; font-weight: 400; letter-spacing: normal; orphans: 2; text-align: left; text-indent: 0px; text-transform: none; widows: 2; word-spacing: 0px; -webkit-text-stroke-width: 0px; background-color: rgb(252, 252, 252); text-decoration-thickness: initial; text-decoration-style: initial; text-decoration-color: initial; float: none; display: inline !important;&quot;&gt;Verilmiş 3 ədəddən 10 və 100 aralığında yerləşənlərin cəmini tapan alqoritm&lt;/span&gt;&#xa;&#xa;" style="whiteSpace=wrap;html=1;aspect=fixed;" vertex="1" parent="1">
          <mxGeometry x="80" y="40" width="160" height="160" as="geometry" />
        </mxCell>
        <mxCell id="-8yeryvxA4hyLNhjOA7v-13" value="FALSE" style="edgeStyle=orthogonalEdgeStyle;rounded=0;orthogonalLoop=1;jettySize=auto;html=1;" edge="1" parent="1" source="-8yeryvxA4hyLNhjOA7v-10" target="-8yeryvxA4hyLNhjOA7v-12">
          <mxGeometry relative="1" as="geometry" />
        </mxCell>
        <mxCell id="-8yeryvxA4hyLNhjOA7v-17" value="TRUE" style="edgeStyle=orthogonalEdgeStyle;rounded=0;orthogonalLoop=1;jettySize=auto;html=1;" edge="1" parent="1" source="-8yeryvxA4hyLNhjOA7v-10" target="-8yeryvxA4hyLNhjOA7v-16">
          <mxGeometry relative="1" as="geometry" />
        </mxCell>
        <mxCell id="-8yeryvxA4hyLNhjOA7v-10" value="X &amp;gt; 10 &amp;amp;&amp;amp; X &amp;lt; 100" style="rhombus;whiteSpace=wrap;html=1;" vertex="1" parent="1">
          <mxGeometry x="358" y="280" width="135" height="80" as="geometry" />
        </mxCell>
        <mxCell id="-8yeryvxA4hyLNhjOA7v-15" value="FALSE" style="edgeStyle=orthogonalEdgeStyle;rounded=0;orthogonalLoop=1;jettySize=auto;html=1;" edge="1" parent="1" source="-8yeryvxA4hyLNhjOA7v-12" target="-8yeryvxA4hyLNhjOA7v-14">
          <mxGeometry relative="1" as="geometry" />
        </mxCell>
        <mxCell id="-8yeryvxA4hyLNhjOA7v-19" value="TRUE" style="edgeStyle=orthogonalEdgeStyle;rounded=0;orthogonalLoop=1;jettySize=auto;html=1;" edge="1" parent="1" source="-8yeryvxA4hyLNhjOA7v-12" target="-8yeryvxA4hyLNhjOA7v-18">
          <mxGeometry relative="1" as="geometry" />
        </mxCell>
        <mxCell id="-8yeryvxA4hyLNhjOA7v-12" value="Y &amp;gt; 10 &amp;amp;&amp;amp; Y &amp;lt; 100" style="rhombus;whiteSpace=wrap;html=1;" vertex="1" parent="1">
          <mxGeometry x="358" y="400" width="135" height="80" as="geometry" />
        </mxCell>
        <mxCell id="-8yeryvxA4hyLNhjOA7v-21" value="TRUE" style="edgeStyle=orthogonalEdgeStyle;rounded=0;orthogonalLoop=1;jettySize=auto;html=1;" edge="1" parent="1" source="-8yeryvxA4hyLNhjOA7v-14" target="-8yeryvxA4hyLNhjOA7v-20">
          <mxGeometry relative="1" as="geometry" />
        </mxCell>
        <mxCell id="-8yeryvxA4hyLNhjOA7v-26" value="FALSE" style="edgeStyle=orthogonalEdgeStyle;rounded=0;orthogonalLoop=1;jettySize=auto;html=1;" edge="1" parent="1" source="-8yeryvxA4hyLNhjOA7v-14" target="-8yeryvxA4hyLNhjOA7v-24">
          <mxGeometry relative="1" as="geometry" />
        </mxCell>
        <mxCell id="-8yeryvxA4hyLNhjOA7v-14" value="Z &amp;gt; 10 &amp;amp;&amp;amp; Z &amp;lt; 100" style="rhombus;whiteSpace=wrap;html=1;" vertex="1" parent="1">
          <mxGeometry x="359" y="520" width="132" height="80" as="geometry" />
        </mxCell>
        <mxCell id="-8yeryvxA4hyLNhjOA7v-31" style="edgeStyle=orthogonalEdgeStyle;rounded=0;orthogonalLoop=1;jettySize=auto;html=1;entryX=0.5;entryY=0;entryDx=0;entryDy=0;" edge="1" parent="1" source="-8yeryvxA4hyLNhjOA7v-16" target="-8yeryvxA4hyLNhjOA7v-12">
          <mxGeometry relative="1" as="geometry">
            <Array as="points">
              <mxPoint x="641" y="370" />
              <mxPoint x="426" y="370" />
            </Array>
          </mxGeometry>
        </mxCell>
        <mxCell id="-8yeryvxA4hyLNhjOA7v-16" value="SUM += X" style="whiteSpace=wrap;html=1;" vertex="1" parent="1">
          <mxGeometry x="580.5" y="290" width="120" height="60" as="geometry" />
        </mxCell>
        <mxCell id="-8yeryvxA4hyLNhjOA7v-30" style="edgeStyle=orthogonalEdgeStyle;rounded=0;orthogonalLoop=1;jettySize=auto;html=1;entryX=0.5;entryY=0;entryDx=0;entryDy=0;" edge="1" parent="1" source="-8yeryvxA4hyLNhjOA7v-18" target="-8yeryvxA4hyLNhjOA7v-14">
          <mxGeometry relative="1" as="geometry">
            <Array as="points">
              <mxPoint x="641" y="490" />
              <mxPoint x="425" y="490" />
            </Array>
          </mxGeometry>
        </mxCell>
        <mxCell id="-8yeryvxA4hyLNhjOA7v-18" value="SUM += Y" style="whiteSpace=wrap;html=1;" vertex="1" parent="1">
          <mxGeometry x="580.5" y="410" width="120" height="60" as="geometry" />
        </mxCell>
        <mxCell id="-8yeryvxA4hyLNhjOA7v-32" style="edgeStyle=orthogonalEdgeStyle;rounded=0;orthogonalLoop=1;jettySize=auto;html=1;entryX=0.5;entryY=0;entryDx=0;entryDy=0;" edge="1" parent="1" source="-8yeryvxA4hyLNhjOA7v-20" target="-8yeryvxA4hyLNhjOA7v-24">
          <mxGeometry relative="1" as="geometry">
            <Array as="points">
              <mxPoint x="637" y="610" />
              <mxPoint x="426" y="610" />
            </Array>
          </mxGeometry>
        </mxCell>
        <mxCell id="-8yeryvxA4hyLNhjOA7v-20" value="SUM += Z" style="whiteSpace=wrap;html=1;" vertex="1" parent="1">
          <mxGeometry x="577" y="530" width="120" height="60" as="geometry" />
        </mxCell>
        <mxCell id="-8yeryvxA4hyLNhjOA7v-22" value="END" style="ellipse;whiteSpace=wrap;html=1;" vertex="1" parent="1">
          <mxGeometry x="365.5" y="780" width="120" height="80" as="geometry" />
        </mxCell>
        <mxCell id="-8yeryvxA4hyLNhjOA7v-25" value="" style="edgeStyle=orthogonalEdgeStyle;rounded=0;orthogonalLoop=1;jettySize=auto;html=1;" edge="1" parent="1" source="-8yeryvxA4hyLNhjOA7v-24" target="-8yeryvxA4hyLNhjOA7v-22">
          <mxGeometry relative="1" as="geometry" />
        </mxCell>
        <mxCell id="-8yeryvxA4hyLNhjOA7v-24" value="SUM" style="shape=document;whiteSpace=wrap;html=1;boundedLbl=1;" vertex="1" parent="1">
          <mxGeometry x="365.5" y="650" width="120" height="80" as="geometry" />
        </mxCell>
      </root>
    </mxGraphModel>
  </diagram>
</mxfile>
